<svg width="150" height="150" viewBox="0 0 150 150" fill="none" xmlns="http://www.w3.org/2000/svg">
<g clip-path="url(#clip0_661_271)">
<path d="M146.807 115.928L112.5 81.6211C105.732 74.8535 95.625 73.5352 87.4805 77.5488L56.25 46.3184V28.125L18.75 0L-2.21655e-07 18.75L28.125 56.25H46.3184L77.5488 87.4805C73.5645 95.625 74.8535 105.732 81.6211 112.5L115.928 146.807C120.205 151.084 127.119 151.084 131.367 146.807L146.807 131.367C151.055 127.09 151.055 120.176 146.807 115.928ZM97.1777 65.918C105.469 65.918 113.262 69.1406 119.121 75L124.805 80.6836C129.434 78.6621 133.828 75.8496 137.637 72.041C148.506 61.1719 152.197 45.8789 148.74 31.9922C148.096 29.3555 144.785 28.4473 142.852 30.3809L121.055 52.1777L101.162 48.8672L97.8516 28.9746L119.648 7.17773C121.582 5.24414 120.645 1.93359 117.979 1.25977C104.092 -2.16797 88.7988 1.52344 77.959 12.3633C69.6094 20.7129 65.6836 31.7285 65.8887 42.7148L89.9414 66.7676C92.3145 66.2109 94.7754 65.918 97.1777 65.918ZM66.7383 89.9414L50.127 73.3301L5.47852 118.008C-1.8457 125.332 -1.8457 137.197 5.47852 144.521C12.8027 151.846 24.668 151.846 31.9922 144.521L68.2031 108.311C65.9766 102.48 65.3027 96.123 66.7383 89.9414ZM18.75 138.281C14.8828 138.281 11.7188 135.117 11.7188 131.25C11.7188 127.354 14.8535 124.219 18.75 124.219C22.6465 124.219 25.7813 127.354 25.7813 131.25C25.7813 135.117 22.6465 138.281 18.75 138.281Z" fill="#FFD600"/>
</g>
<defs>
<clipPath id="clip0_661_271">
<rect width="150" height="150" fill="white"/>
</clipPath>
</defs>
</svg>
