<svg width="150" height="150" viewBox="0 0 150 150" fill="none" xmlns="http://www.w3.org/2000/svg">
<g clip-path="url(#clip0_661_273)">
<path d="M114.375 60.0001H78.7505V73.1251C78.7505 82.4297 71.1801 90.0001 61.8755 90.0001C52.5708 90.0001 45.0005 82.4297 45.0005 73.1251V44.6251L29.7895 53.7657C25.2661 56.461 22.5005 61.3594 22.5005 66.6094V77.6954L3.75046 88.5235C0.164525 90.586 -1.07766 95.1797 1.00828 98.7657L19.7583 131.25C21.8208 134.836 26.4145 136.055 30.0005 133.992L54.2348 120H86.2505C94.5239 120 101.25 113.273 101.25 105H105C109.149 105 112.5 101.648 112.5 97.5001V82.5001H114.375C117.493 82.5001 120 79.9922 120 76.8751V65.6251C120 62.5079 117.493 60.0001 114.375 60.0001ZM148.993 51.2344L130.243 18.7501C128.18 15.1641 123.586 13.9454 120 16.0079L95.7661 30.0001H71.813C69.0005 30.0001 66.2583 30.7969 63.8676 32.2735L56.0161 37.1719C53.813 38.5313 52.5005 40.9454 52.5005 43.5235V73.1251C52.5005 78.3047 56.6958 82.5001 61.8755 82.5001C67.0551 82.5001 71.2505 78.3047 71.2505 73.1251V52.5001H114.375C121.618 52.5001 127.5 58.3829 127.5 65.6251V72.3047L146.25 61.4766C149.836 59.3907 151.055 54.8204 148.993 51.2344Z" fill="#FFD600"/>
</g>
<defs>
<clipPath id="clip0_661_273">
<rect width="150" height="150" fill="white"/>
</clipPath>
</defs>
</svg>
