<svg width="150" height="150" viewBox="0 0 150 150" fill="none" xmlns="http://www.w3.org/2000/svg">
<g clip-path="url(#clip0_661_275)">
<path d="M71.6927 73.5677C73.5156 75.4948 76.4844 75.4948 78.3333 73.5677L106.693 43.8282C114.922 35.1823 114.453 20.8594 105.234 12.8907C97.2135 5.93754 85.2604 7.18754 77.9167 14.8959L75 17.9427L72.1094 14.9219C64.7656 7.18754 52.8125 5.93754 44.7917 12.8907C35.599 20.8594 35.1042 35.1823 43.3333 43.8282L71.6927 73.5677ZM147.214 93.7761C144.141 90.9896 139.349 91.1719 136.12 93.7761L112.057 113.021C109.115 115.391 105.443 116.667 101.641 116.667H70.8333C68.5417 116.667 66.6667 114.792 66.6667 112.5C66.6667 110.208 68.5417 108.333 70.8333 108.333H91.224C95.3646 108.333 99.2188 105.495 99.8958 101.406C100.755 96.1979 96.7448 91.6667 91.6667 91.6667H50C42.9688 91.6667 36.1719 94.0886 30.7031 98.5156L18.5938 108.333H4.16667C1.875 108.333 0 110.208 0 112.5V137.5C0 139.792 1.875 141.667 4.16667 141.667H97.0833C100.859 141.667 104.531 140.391 107.5 138.021L146.875 106.51C150.833 103.359 151.146 97.3177 147.214 93.7761Z" fill="#FFD600"/>
</g>
<defs>
<clipPath id="clip0_661_275">
<rect width="150" height="150" fill="white"/>
</clipPath>
</defs>
</svg>
