<svg width="70" height="70" viewBox="0 0 70 70" fill="none" xmlns="http://www.w3.org/2000/svg">
<circle cx="35" cy="35" r="33.5" fill="white" stroke="#3A3838" stroke-width="3"/>
<path d="M35.0045 24.7445C29.3291 24.7445 24.7513 29.3233 24.7513 35C24.7513 40.6767 29.3291 45.2555 35.0045 45.2555C40.6799 45.2555 45.2577 40.6767 45.2577 35C45.2577 29.3233 40.6799 24.7445 35.0045 24.7445ZM35.0045 41.6674C31.3369 41.6674 28.3385 38.6773 28.3385 35C28.3385 31.3227 31.3279 28.3326 35.0045 28.3326C38.681 28.3326 41.6704 31.3227 41.6704 35C41.6704 38.6773 38.6721 41.6674 35.0045 41.6674ZM48.0686 24.325C48.0686 25.6549 46.9978 26.7171 45.6771 26.7171C44.3475 26.7171 43.2856 25.646 43.2856 24.325C43.2856 23.004 44.3564 21.9329 45.6771 21.9329C46.9978 21.9329 48.0686 23.004 48.0686 24.325ZM54.8595 26.7528C54.7078 23.5485 53.976 20.7101 51.6291 18.3716C49.2911 16.0331 46.4534 15.3012 43.2499 15.1406C39.9481 14.9531 30.0519 14.9531 26.7501 15.1406C23.5555 15.2923 20.7178 16.0242 18.3709 18.3627C16.024 20.7012 15.3012 23.5396 15.1405 26.7438C14.9532 30.0463 14.9532 39.9448 15.1405 43.2472C15.2922 46.4515 16.024 49.2899 18.3709 51.6284C20.7178 53.9669 23.5466 54.6988 26.7501 54.8594C30.0519 55.0469 39.9481 55.0469 43.2499 54.8594C46.4534 54.7077 49.2911 53.9758 51.6291 51.6284C53.9671 49.2899 54.6988 46.4515 54.8595 43.2472C55.0468 39.9448 55.0468 30.0552 54.8595 26.7528ZM50.594 46.7907C49.8979 48.5401 48.5505 49.8879 46.7925 50.593C44.1601 51.6373 37.9136 51.3963 35.0045 51.3963C32.0954 51.3963 25.8399 51.6284 23.2164 50.593C21.4674 49.8968 20.1199 48.549 19.4149 46.7907C18.3709 44.1576 18.6118 37.9097 18.6118 35C18.6118 32.0903 18.3798 25.8334 19.4149 23.2093C20.111 21.4599 21.4584 20.1121 23.2164 19.407C25.8489 18.3627 32.0954 18.6037 35.0045 18.6037C37.9136 18.6037 44.169 18.3716 46.7925 19.407C48.5416 20.1032 49.889 21.451 50.594 23.2093C51.638 25.8424 51.3971 32.0903 51.3971 35C51.3971 37.9097 51.638 44.1666 50.594 46.7907Z" fill="#3A3838"/>
</svg>
