<svg width="70" height="70" viewBox="0 0 70 70" fill="none" xmlns="http://www.w3.org/2000/svg">
<circle cx="35" cy="35" r="33.5" fill="white" stroke="#3A3838" stroke-width="3"/>
<path d="M50.8883 27.0964C50.9137 27.4517 50.9137 27.8071 50.9137 28.1624C50.9137 38.9999 42.665 51.4873 27.5888 51.4873C22.9441 51.4873 18.6295 50.142 15 47.8071C15.6599 47.8832 16.2944 47.9086 16.9797 47.9086C20.8121 47.9086 24.3401 46.6142 27.1573 44.4061C23.5533 44.3299 20.533 41.9695 19.4923 38.7208C20 38.7969 20.5076 38.8477 21.0406 38.8477C21.7766 38.8477 22.5127 38.7461 23.198 38.5685C19.4416 37.807 16.6243 34.5076 16.6243 30.5228V30.4213C17.7156 31.0305 18.9848 31.4112 20.3298 31.4619C18.1217 29.9898 16.6751 27.4771 16.6751 24.6345C16.6751 23.1116 17.0811 21.7157 17.7918 20.4974C21.8273 25.472 27.8934 28.7207 34.6953 29.0761C34.5684 28.467 34.4923 27.8325 34.4923 27.198C34.4923 22.6802 38.1471 19 42.6902 19C45.0506 19 47.1826 19.9898 48.6801 21.5888C50.5328 21.2335 52.3095 20.5482 53.8831 19.6091C53.2739 21.5127 51.9795 23.1117 50.2791 24.1269C51.9288 23.9493 53.5278 23.4923 54.9998 22.8579C53.8833 24.4822 52.4873 25.9288 50.8883 27.0964Z" fill="black"/>
</svg>
