<svg width="42" height="42" viewBox="0 0 42 42" fill="none" xmlns="http://www.w3.org/2000/svg">
<mask id="mask0_1_15" style="mask-type:alpha" maskUnits="userSpaceOnUse" x="0" y="0" width="42" height="42">
<rect width="42" height="42" fill="#D9D9D9"/>
</mask>
<g mask="url(#mask0_1_15)">
<path d="M21.0045 10.7445C15.3291 10.7445 10.7513 15.3233 10.7513 21C10.7513 26.6767 15.3291 31.2555 21.0045 31.2555C26.6799 31.2555 31.2577 26.6767 31.2577 21C31.2577 15.3233 26.6799 10.7445 21.0045 10.7445ZM21.0045 27.6674C17.3369 27.6674 14.3385 24.6773 14.3385 21C14.3385 17.3227 17.3279 14.3326 21.0045 14.3326C24.681 14.3326 27.6704 17.3227 27.6704 21C27.6704 24.6773 24.6721 27.6674 21.0045 27.6674ZM34.0686 10.325C34.0686 11.6549 32.9978 12.7171 31.6771 12.7171C30.3475 12.7171 29.2856 11.646 29.2856 10.325C29.2856 9.00402 30.3564 7.93295 31.6771 7.93295C32.9978 7.93295 34.0686 9.00402 34.0686 10.325ZM40.8595 12.7528C40.7078 9.54848 39.976 6.71014 37.6291 4.37164C35.2911 2.03314 32.4534 1.30124 29.2499 1.14058C25.9481 0.953141 16.0519 0.953141 12.7501 1.14058C9.55549 1.29231 6.71779 2.02421 4.37089 4.36271C2.02398 6.70122 1.30117 9.53955 1.14055 12.7438C0.953151 16.0463 0.953151 25.9448 1.14055 29.2472C1.29225 32.4515 2.02398 35.2899 4.37089 37.6284C6.71779 39.9669 9.54657 40.6988 12.7501 40.8594C16.0519 41.0469 25.9481 41.0469 29.2499 40.8594C32.4534 40.7077 35.2911 39.9758 37.6291 37.6284C39.9671 35.2899 40.6988 32.4515 40.8595 29.2472C41.0469 25.9448 41.0469 16.0552 40.8595 12.7528ZM36.594 32.7907C35.8979 34.5401 34.5505 35.8879 32.7925 36.593C30.1601 37.6373 23.9136 37.3963 21.0045 37.3963C18.0954 37.3963 11.8399 37.6284 9.2164 36.593C7.46737 35.8968 6.11991 34.549 5.41495 32.7907C4.37089 30.1576 4.61182 23.9097 4.61182 21C4.61182 18.0903 4.37981 11.8334 5.41495 9.20931C6.11099 7.45989 7.45845 6.11213 9.2164 5.40701C11.8489 4.36271 18.0954 4.6037 21.0045 4.6037C23.9136 4.6037 30.169 4.37164 32.7925 5.40701C34.5416 6.1032 35.889 7.45097 36.594 9.20931C37.638 11.8424 37.3971 18.0903 37.3971 21C37.3971 23.9097 37.638 30.1666 36.594 32.7907Z" fill="#3A3838"/>
</g>
</svg>
