<svg width="70" height="70" viewBox="0 0 70 70" fill="none" xmlns="http://www.w3.org/2000/svg">
<circle cx="35" cy="35" r="33.5" fill="white" stroke="#3A3838" stroke-width="3"/>
<path d="M54.1642 23.2155C53.7041 21.1626 52.3487 19.5457 50.6277 18.997C47.5084 18 35 18 35 18C35 18 22.4917 18 19.3723 18.997C17.6513 19.5458 16.2959 21.1626 15.8358 23.2155C15 26.9366 15 34.7003 15 34.7003C15 34.7003 15 42.4641 15.8358 46.1852C16.2959 48.2381 17.6513 49.7876 19.3723 50.3363C22.4917 51.3333 35 51.3333 35 51.3333C35 51.3333 47.5083 51.3333 50.6277 50.3363C52.3487 49.7876 53.7041 48.2381 54.1642 46.1852C55 42.4641 55 34.7003 55 34.7003C55 34.7003 55 26.9366 54.1642 23.2155ZM30.9091 41.7492V27.6515L41.3636 34.7005L30.9091 41.7492Z" fill="black"/>
</svg>
